<?xml version="1.0" encoding="UTF-8" standalone="no"?>
<!-- Created with Inkscape (http://www.inkscape.org/) -->

<svg
   xmlns:dc="http://purl.org/dc/elements/1.1/"
   xmlns:cc="http://creativecommons.org/ns#"
   xmlns:rdf="http://www.w3.org/1999/02/22-rdf-syntax-ns#"
   xmlns:svg="http://www.w3.org/2000/svg"
   xmlns="http://www.w3.org/2000/svg"
   xmlns:sodipodi="http://sodipodi.sourceforge.net/DTD/sodipodi-0.dtd"
   xmlns:inkscape="http://www.inkscape.org/namespaces/inkscape"
   width="50"
   height="50"
   viewBox="0 0 50.000001 50.000001"
   id="svg2"
   version="1.1"
   inkscape:version="0.91 r13725"
   sodipodi:docname="skype_n.svg">
  <defs
     id="defs4" />
  <sodipodi:namedview
     id="base"
     pagecolor="#ffffff"
     bordercolor="#666666"
     borderopacity="1.0"
     inkscape:pageopacity="0.0"
     inkscape:pageshadow="2"
     inkscape:zoom="3.959798"
     inkscape:cx="48.731734"
     inkscape:cy="34.90252"
     inkscape:document-units="px"
     inkscape:current-layer="layer1"
     showgrid="false"
     units="px"
     inkscape:window-width="1366"
     inkscape:window-height="681"
     inkscape:window-x="0"
     inkscape:window-y="24"
     inkscape:window-maximized="1" />
  <metadata
     id="metadata7">
    <rdf:RDF>
      <cc:Work
         rdf:about="">
        <dc:format>image/svg+xml</dc:format>
        <dc:type
           rdf:resource="http://purl.org/dc/dcmitype/StillImage" />
        <dc:title></dc:title>
      </cc:Work>
    </rdf:RDF>
  </metadata>
  <g
     inkscape:label="Layer 1"
     inkscape:groupmode="layer"
     id="layer1"
     transform="translate(0,-1002.3622)">
    <g
       id="g3337"
       transform="translate(-274.99873,726.60331)">
      <path
         id="path3339"
         d="m 298.473,298.13 c -3.38,-0.838 -1.53,-3.789 1.209,-3.745 2.658,0.043 4.01,2.907 5.215,2.759 1.208,-0.149 2.236,-1.994 0.338,-3.645 -1.643,-1.43 -3.718,-2.218 -6.907,-1.922 -2.502,0.232 -4.878,1.873 -5.168,5.074 -0.29,3.203 3.431,4.829 6.377,5.273 2.064,0.31 4.88,1.329 3.189,3.299 -1.554,1.813 -4.493,0.692 -5.266,0.2 -0.773,-0.495 -1.644,-2.269 -3.094,-2.17 -1.452,0.097 -2.166,2.04 -0.385,3.744 1.595,1.526 3.334,2.364 7.052,2.167 3.722,-0.198 7.054,-3.546 5.749,-6.7 -1.303,-3.153 -4.925,-3.496 -8.309,-4.334 z"
         inkscape:connector-curvature="0"
         style="fill:#333333" />
      <path
         id="path3341"
         d="m 300,277.5 c -12.427,0 -22.5,10.073 -22.5,22.5 0,12.426 10.073,22.5 22.5,22.5 12.427,0 22.5,-10.074 22.5,-22.5 0,-12.427 -10.073,-22.5 -22.5,-22.5 z m 5.756,35.229 c -1.353,0 -2.616,-0.394 -3.688,-1.067 -0.69,0.127 -1.4,0.198 -2.129,0.198 -6.458,0 -11.688,-5.282 -11.688,-11.798 0,-0.631 0.049,-1.253 0.145,-1.859 -0.711,-1.109 -1.124,-2.43 -1.124,-3.853 0,-3.909 3.121,-7.078 6.975,-7.078 1.405,0 2.711,0.423 3.81,1.149 0.612,-0.103 1.242,-0.156 1.883,-0.156 6.455,0 11.688,5.284 11.688,11.799 0,0.541 -0.039,1.075 -0.109,1.601 0.765,1.135 1.211,2.508 1.212,3.987 0,3.91 -3.122,7.077 -6.975,7.077 z"
         inkscape:connector-curvature="0"
         style="fill:#333333" />
    </g>
  </g>
</svg>
